<?xml version="1.0" encoding="utf-8"?>
<!-- Generator: Adobe Illustrator 17.1.0, SVG Export Plug-In . SVG Version: 6.00 Build 0)  -->
<!DOCTYPE svg PUBLIC "-//W3C//DTD SVG 1.1//EN" "http://www.w3.org/Graphics/SVG/1.1/DTD/svg11.dtd">
<svg version="1.1" id="Layer_1" xmlns="http://www.w3.org/2000/svg" xmlns:xlink="http://www.w3.org/1999/xlink" x="0px" y="0px"
	 viewBox="0 0 512 512" enable-background="new 0 0 512 512" xml:space="preserve">
<g>
	<g>
		<polygon fill="#184473" points="30.7,394.8 30.7,160 59.2,176.5 59.3,176.5 89,193.7 89,355 233.7,438.5 233.7,512 		"/>
		<polygon fill="#03B6F0" points="256,65.7 110.6,149.7 101.7,144.6 99.1,143.1 54.1,117.1 256.9,0 459.5,117 438.2,129.4 
			402.3,150.2 		"/>
		<polygon fill="#0582D2" points="278.3,438.5 423,355 423,193.7 454,175.8 457.9,173.5 481.3,160 481.3,394.8 278.3,512 		"/>
	</g>
	<polygon fill="#0582D2" points="256,256 256,256 256,396.3 377.5,326.1 377.5,185.9 	"/>
	<polygon fill="#03B6F0" points="256,115.8 377.5,185.9 256,256 134.5,185.9 	"/>
</g>
</svg>
