<?xml version="1.0" encoding="utf-8"?>
<!-- Generator: Adobe Illustrator 25.1.0, SVG Export Plug-In . SVG Version: 6.00 Build 0)  -->
<svg version="1.1" id="Слой_1" xmlns="http://www.w3.org/2000/svg" xmlns:xlink="http://www.w3.org/1999/xlink" x="0px" y="0px"
	 viewBox="0 0 20 20" style="enable-background:new 0 0 20 20;" xml:space="preserve">
<style type="text/css">
	.st0{fill:#CD5237;}
	.st1{display:none;}
	.st2{display:inline;}
</style>
<g>
	<path class="st0" d="M9.2,18.2c0.7,0.8,1.9,0.8,2.7,0.1l2.5-2.2c2.1-1.9,3.6-3.9,4.3-5.8c0.4-0.9,0.5-1.8,0.5-2.6
		c-0.1-0.8-0.4-1.6-0.9-2.2L15,2c-0.1-0.1-0.5-0.5-1.4-0.7C12.3,1,10.7,1.2,8.8,1.7C4.8,2.9,3.4,3.2,3.4,3.3c-1,0.3-1.6,1.3-1.4,2.3
		C2,6,2.3,6.4,2.7,6.7C3.1,7,3.7,7.1,4.2,6.9l2.5-0.5l-5.2,4.7c-0.8,0.7-0.8,1.9-0.1,2.7c0.3,0.3,0.6,0.5,0.9,0.6
		C1.9,15,2,15.9,2.6,16.5C3.1,17.1,4,17.3,4.7,17c0.1,0.4,0.2,0.7,0.5,1c0.7,0.8,1.9,0.8,2.7,0.1l0.9-0.8C8.8,17.6,9,17.9,9.2,18.2
		L9.2,18.2z M13.7,15.4l-2.5,2.2c-0.4,0.4-1,0.3-1.3-0.1s-0.3-1,0.1-1.3l3.2-2.9c0.2-0.2,0.2-0.5,0-0.7c-0.2-0.2-0.5-0.2-0.7,0
		l-5.3,4.8c-0.4,0.4-1,0.3-1.3-0.1c-0.4-0.4-0.3-1,0.1-1.3l4.6-4.2c0.2-0.2,0.2-0.5,0-0.7c-0.2-0.2-0.5-0.2-0.7,0L4.6,16
		c-0.4,0.4-1,0.3-1.3-0.1c-0.4-0.4-0.3-1,0.1-1.3l5.3-4.8c0.2-0.2,0.2-0.5,0-0.7C8.5,8.9,8.2,8.9,8,9.1l-4.6,4.2
		c-0.4,0.4-1,0.3-1.3-0.1c-0.4-0.4-0.3-1,0.1-1.3l5.5-5C8.1,6.4,8.2,6,8.1,5.7C7.9,5.3,7.5,5.2,6.9,5.4L4,6l0,0
		C3.7,6.1,3.4,6,3.2,5.9C3,5.8,2.9,5.6,2.9,5.4c-0.1-0.5,0.2-1,0.8-1.2l0,0c0,0,1.3-0.4,5.5-1.5c2.1-0.6,3.4-0.5,4.2-0.4
		c0.7,0.1,1,0.4,1.1,0.4l3.2,3.5c1,1.1,0.7,2.7,0.3,3.8C17.1,11.7,15.7,13.6,13.7,15.4L13.7,15.4z"/>
</g>
<g transform="translate(0.000000,512.000000) scale(0.100000,-0.100000)" class="st1">
	<path class="st2" d="M116.3,5120.1c-1.1-0.6-2.8-2.8-7.4-9.7l-6.1-9l-14.8-8.8c-16.3-9.8-15-8.7-17.5-15.1l-1.4-3.7l-11.5-0.2
		c-9.3-0.2-11.6-0.3-12.4-0.8c-0.5-0.3-6.2-7.2-12.6-15.3l-11.8-14.7l-9.1-6C2,5030.5,1,5029.6,1,5026.7c0-2.9,3-5.9,5.9-5.9
		c1.7,0,2,0.2,12.8,7.2l9,5.9l11.2,14l11.2,13.9h6.6c3.6,0,6.6-0.1,6.6-0.2c0-0.1-2.9-7.7-6.5-16.9c-3.6-9.2-6.7-17.7-7-18.9
		c-1.7-7.2,0.5-14.8,5.9-20.1c9.7-9.6,25.3-8.1,33.1,3.2c0.6,0.9,3.6,6.6,6.5,12.6l5.4,11h35.5c34.8,0,35.6,0,37-0.8
		c1.8-0.9,3.1-3.1,3.1-5.1c0-1.8-1.5-4.2-3.2-5.1c-1.3-0.7-2.4-0.7-10.5-0.7c-8.3,0-9.1-0.1-10.6-0.8c-1.8-0.9-3.1-3.1-3.1-5.1
		s1.4-4.2,3.1-5.1c1.4-0.7,2.3-0.8,10.6-0.8s9.1-0.1,10.6-0.8c1.8-0.9,3.1-3.1,3.1-5.1c0-1.8-1.5-4.2-3.2-5.1
		c-1.3-0.7-2.4-0.7-10.5-0.7c-8.3,0-9.1-0.1-10.6-0.8c-1.8-0.9-3.1-3.1-3.1-5.1c0-1.9,1.3-4,3-5c1.4-0.8,2-0.9,8.6-0.9
		c8.2,0,9.6-0.4,11-3.1c1-2,1-3.6,0-5.5c-1.6-2.8-2.8-3.1-10.9-3.1c-8.2,0-9.6-0.4-11-3.1c-1.5-2.9-0.5-6.1,2.3-7.7
		c1.4-0.8,2.1-0.9,6.7-0.9c4.4,0,5.4-0.1,6.7-0.8c1.8-0.9,3.1-3.1,3.1-5.1c0-1.8-1.4-4-3.1-5c-1.4-0.8-2-0.8-13.8-0.8h-12.3v3.7
		c0,6.8-1.4,10.6-5.2,14.5c-6.1,6.1-15.3,6.9-22.4,2.1l-1.7-1.2l-2.1,1.3c-3.5,2.2-5.5,2.8-9.7,2.8s-6.2-0.6-9.7-2.8l-2.1-1.3
		l-2,1.3c-3.6,2.2-5.5,2.8-9.9,2.7c-4.3,0-6.6-0.7-9.8-2.9l-1.7-1.2l-2.1,1.3c-3,1.9-5.2,2.7-8.4,2.9c-5.2,0.4-9.9-1.4-13.7-5.1
		c-3.8-3.9-5.2-7.7-5.2-14.5v-3.7H20.2c-13.8,0-14.6,0-16-0.8c-1.8-0.9-3.1-3.1-3.1-5.1c0-1.8,1.4-4,3.1-5c1.4-0.8,1.9-0.8,15.9-0.8
		h14.4l0.4-2.7c0.9-5.8,4.3-10.7,9.2-13.1c6.3-3.1,12.7-2.8,18.2,1l1.7,1.2l1.1-0.7c6.6-4.6,14.7-4.6,21.3,0c1.1,0.7,1.1,0.7,2.1,0
		c6.6-4.6,14.7-4.6,21.3,0l1.1,0.7l1.7-1.2c5.4-3.8,11.9-4.1,18.2-1c4.8,2.4,8.2,7.3,9.2,13.1l0.4,2.7h12.4
		c13.7,0,15.2,0.2,19.1,2.2c8.3,4.3,11.6,14.7,7.4,23.2l-0.8,1.6l1.7,1.8c4.9,5.2,6.2,13.4,3.1,19.5l-1,2l1.8,1.9
		c5.6,6,6.4,14.8,2,21.8l-1.3,2.1l1.3,2.1c4.3,6.6,3.8,15.2-1.2,21l-1.3,1.5l8.2,12.2c4.5,6.8,8.5,12.8,8.8,13.5
		c1.8,3.6-1.1,8.3-5.1,8.3c-3.2,0-3.5-0.4-13.5-15.4l-9.3-14h-37.9c-41.6,0-39.7,0.1-41.3-2.3c-0.4-0.5-3.4-6.6-6.8-13.5
		c-5-10.4-6.3-12.8-7.8-14.3c-6.4-6.5-17.5-1.4-16.7,7.6c0.1,1.4,3.1,9.5,10.1,27.4c5.4,14,10,25.6,10,25.8
		c0.1,0.3,6.6,4.3,14.5,9.1l14.3,8.6l6.3,9.3c3.5,5.1,6.6,9.8,7,10.6C126.8,5117.4,121.2,5122.7,116.3,5120.1z M54.9,4961.4
		c1-0.5,1.8-1.3,2.3-2.3c0.7-1.4,0.8-2.3,0.8-11.8c0-9.7,0-10.3-0.8-11.7c-1-1.7-3.2-3.1-5-3.1c-1.8,0-4.1,1.4-5,3.1
		c-0.8,1.4-0.8,2-0.8,11.7c0,9.5,0,10.4,0.8,11.8C48.6,4961.9,52,4962.9,54.9,4961.4z M78.4,4961.4c1-0.5,1.8-1.3,2.3-2.3
		c0.7-1.4,0.8-2.3,0.8-11.8c0-9.7,0-10.3-0.8-11.7c-1-1.7-3.2-3.1-5-3.1s-4.1,1.4-5,3.1c-0.8,1.4-0.8,2-0.8,11.7
		c0,9.5,0,10.4,0.8,11.8C72,4961.9,75.4,4962.9,78.4,4961.4z M101.8,4961.4c1-0.5,1.8-1.3,2.3-2.3c0.7-1.4,0.8-2.3,0.8-11.8
		c0-9.7,0-10.3-0.8-11.7c-1-1.7-3.2-3.1-5-3.1c-1.8,0-4.1,1.4-5,3.1c-0.8,1.4-0.8,2-0.8,11.7c0,9.5,0,10.4,0.8,11.8
		C95.5,4961.9,98.9,4962.9,101.8,4961.4z M125.3,4961.4c1-0.5,1.8-1.3,2.3-2.3c0.7-1.4,0.8-2.3,0.8-11.8c0-9.7,0-10.3-0.8-11.7
		c-1-1.7-3.2-3.1-5-3.1c-1.8,0-4.1,1.4-5,3.1c-0.8,1.4-0.8,2-0.8,11.7c0,9.5,0,10.4,0.8,11.8
		C118.9,4961.9,122.3,4962.9,125.3,4961.4z"/>
</g>
</svg>
